# xmcd CD database file
#
# Track frame offsets:
#	150
#	14885
#	27995
#	43637
#	63587
#	78115
#	91822
#	104217
#	118057
#	130950
#	141035
#	158947
#
# Disc length: 2268 seconds
#
# Revision: 0
# Processed by: cddbd v1.5.2PL0 Copyright (c) Steve Scherf et al.
# Submitted via: CDex 1.70beta2
#
DISCID=a708da0c
DTITLE=Dawn Dorminy - Good Country Lovin'
DYEAR=1991
DGENRE=Country
TTITLE0=Streethearts
TTITLE1=I'd Rather Be In Love
TTITLE2=You Can't Put The City In A Country Girl
TTITLE3=Solid Ground
TTITLE4=Don't Touch Me
TTITLE5=Draggin' The River
TTITLE6=Good Country Lovin'
TTITLE7=You're A Wanted Man
TTITLE8=Talkin' To The Wall
TTITLE9=The Bridge Washed Out
TTITLE10=(If You're Temptation) How Can I Resist?
TTITLE11=Break Out The Good Stuff
EXTD=YEAR: 1991
EXTT0=
EXTT1=
EXTT2=
EXTT3=
EXTT4=
EXTT5=
EXTT6=
EXTT7=
EXTT8=
EXTT9=
EXTT10=
EXTT11=
PLAYORDER=
